<svg class="diagram-root" style="background: #f5f6f6" xmlns="http://www.w3.org/2000/svg" xmlns:xlink="http://www.w3.org/1999/xlink"><style>.diagram-root { font-family: "Helvetica Neue", sans-serif; font-size: 12px; } .t { overflow: visible; } .t-bg { y: 40; fill: #fff;   } .th { fill: #005aa0;   } .tht { fill: #fff; font-size: 14px;  } .tf { fill: #323c46; overflow: visible; } .tf.pk { fill: #005aa0; font-weight: bold; } .tf.fk { font-weight: bold; } .ty { fill: #adb1b5; font-weight: normal; text-anchor: end; } .r { fill: transparent; stroke: #c3c3c3; stroke-width: 1; } .l { stroke: 1; } .i { fill: #c2c7ce; stroke: #c2c7ce; } .i.ix { fill: #afb3b6; stroke: #000; } .fa { fill: transparent; overflow: visible; } .fa .bg.hover { fill: #f7f7f7; } .c { cy: 12; r: 4; stroke: #d2d2dc; fill: #d2d2dc; } .hr { fill: transparent; stroke: #323c46; stroke-opacity: 0.035; stroke-width: 13; } .dc { stroke: #fa5a3c; fill: #fa5a3c; } .x { stroke: white; stroke-width: 1; } .hl .th { fill: #1b9bff; } .hl .tht {  } .fhl .bg { fill: #e7f4ff; } .fhls .bg {  } .r.hl { stroke: #1b9bff; } .dim { opacity: 0.25; }</style><g class="drawing-wrapper" transform="translate(-116.55999999999995, 44.27285714285706) scale(1,1)"><g class="rs"><path d="M 553.34 42.730000000000004 m -1, 0 a 1,1 0 1,0 2,0 a 1,1 0 1,0 -2,0 M 553.34 42.730000000000004 m -0.5, 0 a 0.5,0.5 0 1,0 1,0 a 0.5,0.5 0 1,0 -1,0  M553.34 42.730000000000004 L553.34 42.730000000000004 565.34 42.730000000000004 M 553.34 48.730000000000004 m -1, 0 a 1,1 0 1,0 2,0 a 1,1 0 1,0 -2,0 M 553.34 48.730000000000004 m -0.5, 0 a 0.5,0.5 0 1,0 1,0 a 0.5,0.5 0 1,0 -1,0  M553.34 48.730000000000004 L553.34 48.730000000000004 560.34 42.730000000000004 553.34 36.730000000000004 M 553.34 36.730000000000004 m -1, 0 a 1,1 0 1,0 2,0 a 1,1 0 1,0 -2,0 M 553.34 36.730000000000004 m -0.5, 0 a 0.5,0.5 0 1,0 1,0 a 0.5,0.5 0 1,0 -1,0  M565.34 42.730000000000004 Q 581.72 42.730000000000004, 598.1 136.3 T 630.86 229.86 M 642.86 229.86 m -1, 0 a 1,1 0 1,0 2,0 a 1,1 0 1,0 -2,0 M 642.86 229.86 m -0.5, 0 a 0.5,0.5 0 1,0 1,0 a 0.5,0.5 0 1,0 -1,0  M642.86 229.86 L642.86 229.86 630.86 229.86 M636.86 235.86 L636.86 235.86 636.86 223.86" id="h3620250256" class="r"></path><path d="M 377.15 67.73 m -1, 0 a 1,1 0 1,0 2,0 a 1,1 0 1,0 -2,0 M 377.15 67.73 m -0.5, 0 a 0.5,0.5 0 1,0 1,0 a 0.5,0.5 0 1,0 -1,0  M377.15 67.73 L377.15 67.73 365.15 67.73 M 377.15 73.73 m -1, 0 a 1,1 0 1,0 2,0 a 1,1 0 1,0 -2,0 M 377.15 73.73 m -0.5, 0 a 0.5,0.5 0 1,0 1,0 a 0.5,0.5 0 1,0 -1,0  M377.15 73.73 L377.15 73.73 370.15 67.73 377.15 61.730000000000004 M 377.15 61.730000000000004 m -1, 0 a 1,1 0 1,0 2,0 a 1,1 0 1,0 -2,0 M 377.15 61.730000000000004 m -0.5, 0 a 0.5,0.5 0 1,0 1,0 a 0.5,0.5 0 1,0 -1,0  M365.15 67.73 Q 348.85 67.73, 332.55 85.23 T 299.95 102.72999999999999 M 287.95 102.72999999999999 m -1, 0 a 1,1 0 1,0 2,0 a 1,1 0 1,0 -2,0 M 287.95 102.72999999999999 m -0.5, 0 a 0.5,0.5 0 1,0 1,0 a 0.5,0.5 0 1,0 -1,0  M287.95 102.72999999999999 L287.95 102.72999999999999 299.95 102.72999999999999 M293.95 108.72999999999999 L293.95 108.72999999999999 293.95 96.72999999999999" id="h4051903036" class="r"></path><path d="M 546.46 192.72 m -1, 0 a 1,1 0 1,0 2,0 a 1,1 0 1,0 -2,0 M 546.46 192.72 m -0.5, 0 a 0.5,0.5 0 1,0 1,0 a 0.5,0.5 0 1,0 -1,0  M546.46 192.72 L546.46 192.72 558.46 192.72 M 546.46 198.72 m -1, 0 a 1,1 0 1,0 2,0 a 1,1 0 1,0 -2,0 M 546.46 198.72 m -0.5, 0 a 0.5,0.5 0 1,0 1,0 a 0.5,0.5 0 1,0 -1,0  M546.46 198.72 L546.46 198.72 553.46 192.72 546.46 186.72 M 546.46 186.72 m -1, 0 a 1,1 0 1,0 2,0 a 1,1 0 1,0 -2,0 M 546.46 186.72 m -0.5, 0 a 0.5,0.5 0 1,0 1,0 a 0.5,0.5 0 1,0 -1,0  M558.46 192.72 Q 576.56 192.72, 594.66 211.29 T 630.86 229.86 M 642.86 229.86 m -1, 0 a 1,1 0 1,0 2,0 a 1,1 0 1,0 -2,0 M 642.86 229.86 m -0.5, 0 a 0.5,0.5 0 1,0 1,0 a 0.5,0.5 0 1,0 -1,0  M642.86 229.86 L642.86 229.86 630.86 229.86 M636.86 235.86 L636.86 235.86 636.86 223.86" id="h175481269" class="r"></path><path d="M 384.27 217.72 m -1, 0 a 1,1 0 1,0 2,0 a 1,1 0 1,0 -2,0 M 384.27 217.72 m -0.5, 0 a 0.5,0.5 0 1,0 1,0 a 0.5,0.5 0 1,0 -1,0  M384.27 217.72 L384.27 217.72 372.27 217.72 M 384.27 223.72 m -1, 0 a 1,1 0 1,0 2,0 a 1,1 0 1,0 -2,0 M 384.27 223.72 m -0.5, 0 a 0.5,0.5 0 1,0 1,0 a 0.5,0.5 0 1,0 -1,0  M384.27 223.72 L384.27 223.72 377.27 217.72 384.27 211.72 M 384.27 211.72 m -1, 0 a 1,1 0 1,0 2,0 a 1,1 0 1,0 -2,0 M 384.27 211.72 m -0.5, 0 a 0.5,0.5 0 1,0 1,0 a 0.5,0.5 0 1,0 -1,0  M372.27 217.72 Q 354.19 217.72, 336.11 160.23 T 299.95 102.72999999999999 M 287.95 102.72999999999999 m -1, 0 a 1,1 0 1,0 2,0 a 1,1 0 1,0 -2,0 M 287.95 102.72999999999999 m -0.5, 0 a 0.5,0.5 0 1,0 1,0 a 0.5,0.5 0 1,0 -1,0  M287.95 102.72999999999999 L287.95 102.72999999999999 299.95 102.72999999999999 M293.95 108.72999999999999 L293.95 108.72999999999999 293.95 96.72999999999999" id="h645641026" class="r"></path><path d="M 885.71 354.14 m -1, 0 a 1,1 0 1,0 2,0 a 1,1 0 1,0 -2,0 M 885.71 354.14 m -0.5, 0 a 0.5,0.5 0 1,0 1,0 a 0.5,0.5 0 1,0 -1,0  M885.71 354.14 L885.71 354.14 873.71 354.14 M 885.71 360.14 m -1, 0 a 1,1 0 1,0 2,0 a 1,1 0 1,0 -2,0 M 885.71 360.14 m -0.5, 0 a 0.5,0.5 0 1,0 1,0 a 0.5,0.5 0 1,0 -1,0  M885.71 360.14 L885.71 360.14 878.71 354.14 885.71 348.14 M 885.71 348.14 m -1, 0 a 1,1 0 1,0 2,0 a 1,1 0 1,0 -2,0 M 885.71 348.14 m -0.5, 0 a 0.5,0.5 0 1,0 1,0 a 0.5,0.5 0 1,0 -1,0  M873.71 354.14 Q 855.68 354.14, 837.65 304.5 T 801.58 254.86 M 789.58 254.86 m -1, 0 a 1,1 0 1,0 2,0 a 1,1 0 1,0 -2,0 M 789.58 254.86 m -0.5, 0 a 0.5,0.5 0 1,0 1,0 a 0.5,0.5 0 1,0 -1,0  M789.58 254.86 L789.58 254.86 801.58 254.86 M795.58 260.86 L795.58 260.86 795.58 248.86" id="h2157073902" class="r"></path><path d="M 533.47 351.29 m -1, 0 a 1,1 0 1,0 2,0 a 1,1 0 1,0 -2,0 M 533.47 351.29 m -0.5, 0 a 0.5,0.5 0 1,0 1,0 a 0.5,0.5 0 1,0 -1,0  M533.47 351.29 L533.47 351.29 545.47 351.29 M 533.47 357.29 m -1, 0 a 1,1 0 1,0 2,0 a 1,1 0 1,0 -2,0 M 533.47 357.29 m -0.5, 0 a 0.5,0.5 0 1,0 1,0 a 0.5,0.5 0 1,0 -1,0  M533.47 357.29 L533.47 357.29 540.47 351.29 533.47 345.29 M 533.47 345.29 m -1, 0 a 1,1 0 1,0 2,0 a 1,1 0 1,0 -2,0 M 533.47 345.29 m -0.5, 0 a 0.5,0.5 0 1,0 1,0 a 0.5,0.5 0 1,0 -1,0  M545.47 351.29 Q 566.82 351.29, 588.17 290.58 T 630.86 229.86 M 642.86 229.86 m -1, 0 a 1,1 0 1,0 2,0 a 1,1 0 1,0 -2,0 M 642.86 229.86 m -0.5, 0 a 0.5,0.5 0 1,0 1,0 a 0.5,0.5 0 1,0 -1,0  M642.86 229.86 L642.86 229.86 630.86 229.86 M636.86 235.86 L636.86 235.86 636.86 223.86" id="h221257298" class="r"></path></g><g class="hrs"></g><g class="ts"><svg width="146.72" height="225" x="642.86" y="172.86" id="h3299212598" class="t"><rect height="40" width="146.72" class="th"></rect><text x="13" y="25" class="tht">Employees</text><rect height="185" width="146.72" class="t-bg"></rect><text x="13" y="61" class="tf pk">emp_no<tspan x="133.72" class="ty">int</tspan></text><path d="M7,14A2,2 0 0,1 5,12A2,2 0 0,1 7,10A2,2 0 0,1 9,12A2,2 0 0,1 7,14M12.65,10C11.83,7.67 9.61,6 7, 6A6, 6 0 0, 0 1, 12A6, 6 0 0, 0 7, 18C9.61, 18 11.83, 16.33 12.65, 14H17V18H21V14H23V10H12.65Z" class="i pk" transform="translate(101.046171875, 48) scale(0.65)"></path><text x="13" y="86" class="tf fk">emp_title_id<tspan x="133.72" class="ty">money</tspan></text><text x="13" y="111" class="tf">birth_date<tspan x="133.72" class="ty">int</tspan></text><text x="13" y="136" class="tf">first_name<tspan x="133.72" class="ty">int</tspan></text><text x="13" y="161" class="tf">last_name<tspan x="133.72" class="ty">int</tspan></text><text x="13" y="186" class="tf">sex<tspan x="133.72" class="ty">int</tspan></text><text x="13" y="211" class="tf">hire_date<tspan x="133.72" class="ty">int</tspan></text></svg><svg width="149.39" height="100" x="138.56" y="45.73" id="h2876837712" class="t"><rect height="40" width="149.39" class="th"></rect><text x="13" y="25" class="tht">Department</text><rect height="60" width="149.39" class="t-bg"></rect><text x="13" y="61" class="tf pk">dept_no<tspan x="136.39" class="ty">varchar</tspan></text><path d="M7,14A2,2 0 0,1 5,12A2,2 0 0,1 7,10A2,2 0 0,1 9,12A2,2 0 0,1 7,14M12.65,10C11.83,7.67 9.61,6 7, 6A6, 6 0 0, 0 1, 12A6, 6 0 0, 0 7, 18C9.61, 18 11.83, 16.33 12.65, 14H17V18H21V14H23V10H12.65Z" class="i pk" transform="translate(76.37632812499999, 48) scale(0.65)"></path><text x="13" y="86" class="tf">dept_name<tspan x="136.39" class="ty">varchar</tspan></text></svg><svg width="176.19" height="100" x="377.15" y="-14.27" id="h253171898" class="t"><rect height="40" width="176.19" class="th"></rect><text x="13" y="25" class="tht">Department_Employees</text><rect height="60" width="176.19" class="t-bg"></rect><text x="13" y="61" class="tf fk">emp_no<tspan x="163.19" class="ty">int</tspan></text><text x="13" y="86" class="tf pk">dept_no<tspan x="163.19" class="ty">int</tspan></text><path d="M7,14A2,2 0 0,1 5,12A2,2 0 0,1 7,10A2,2 0 0,1 9,12A2,2 0 0,1 7,14M12.65,10C11.83,7.67 9.61,6 7, 6A6, 6 0 0, 0 1, 12A6, 6 0 0, 0 7, 18C9.61, 18 11.83, 16.33 12.65, 14H17V18H21V14H23V10H12.65Z" class="i pk" transform="translate(130.516171875, 73) scale(0.65)"></path></svg><svg width="162.19" height="100" x="384.27" y="135.72" id="h2951077092" class="t"><rect height="40" width="162.19" class="th"></rect><text x="13" y="25" class="tht">Department_Manager</text><rect height="60" width="162.19" class="t-bg"></rect><text x="13" y="61" class="tf fk">emp_no<tspan x="149.19" class="ty">int</tspan></text><text x="13" y="86" class="tf pk">dept_no<tspan x="149.19" class="ty">int</tspan></text><path d="M7,14A2,2 0 0,1 5,12A2,2 0 0,1 7,10A2,2 0 0,1 9,12A2,2 0 0,1 7,14M12.65,10C11.83,7.67 9.61,6 7, 6A6, 6 0 0, 0 1, 12A6, 6 0 0, 0 7, 18C9.61, 18 11.83, 16.33 12.65, 14H17V18H21V14H23V10H12.65Z" class="i pk" transform="translate(116.516171875, 73) scale(0.65)"></path></svg><svg width="113.36" height="100" x="885.71" y="297.14" id="h3517680912" class="t"><rect height="40" width="113.36" class="th"></rect><text x="13" y="25" class="tht">Titles</text><rect height="60" width="113.36" class="t-bg"></rect><text x="13" y="61" class="tf pk">title_id<tspan x="100.36" class="ty">int</tspan></text><path d="M7,14A2,2 0 0,1 5,12A2,2 0 0,1 7,10A2,2 0 0,1 9,12A2,2 0 0,1 7,14M12.65,10C11.83,7.67 9.61,6 7, 6A6, 6 0 0, 0 1, 12A6, 6 0 0, 0 7, 18C9.61, 18 11.83, 16.33 12.65, 14H17V18H21V14H23V10H12.65Z" class="i pk" transform="translate(67.686171875, 48) scale(0.65)"></path><text x="13" y="86" class="tf">title<tspan x="100.36" class="ty">string</tspan></text><path d="M22,18V22H18V19H15V16H12L9.74,13.74C9.19,13.91 8.61,14 8,14A6,6 0 0,1 2,8A6,6 0 0,1 8,2A6,6 0 0,1 14,8C14,8.61 13.91, 9.19 13.74, 9.74L22, 18M7, 5A2, 2 0 0, 0 5, 7A2, 2 0 0, 0 7, 9A2, 2 0 0, 0 9, 7A2, 2 0 0, 0 7, 5Z" class="i uq" transform="translate(55.01625, 75.5) scale(0.5)"></path></svg><svg width="122.04" height="100" x="411.43" y="294.29" id="h3858243705" class="t"><rect height="40" width="122.04" class="th"></rect><text x="13" y="25" class="tht">Salaries</text><rect height="60" width="122.04" class="t-bg"></rect><text x="13" y="61" class="tf pk">emp_no<tspan x="109.04" class="ty">int</tspan></text><path d="M7,14A2,2 0 0,1 5,12A2,2 0 0,1 7,10A2,2 0 0,1 9,12A2,2 0 0,1 7,14M12.65,10C11.83,7.67 9.61,6 7, 6A6, 6 0 0, 0 1, 12A6, 6 0 0, 0 7, 18C9.61, 18 11.83, 16.33 12.65, 14H17V18H21V14H23V10H12.65Z" class="i pk" transform="translate(76.366171875, 48) scale(0.65)"></path><text x="13" y="86" class="tf">salary<tspan x="109.04" class="ty">string?</tspan></text></svg></g></g><text class="qdbd-link" x="10" y="20">www.quickdatabasediagrams.com</text></svg>