<svg class="diagram-root" style="background: #f5f6f6" xmlns="http://www.w3.org/2000/svg" xmlns:xlink="http://www.w3.org/1999/xlink"><style>.diagram-root { font-family: "Helvetica Neue", sans-serif; font-size: 12px; } .t { overflow: visible; } .t-bg { y: 40; fill: #fff;   } .th { fill: #005aa0;   } .tht { fill: #fff; font-size: 14px;  } .tf { fill: #323c46; overflow: visible; } .tf.pk { fill: #005aa0; font-weight: bold; } .tf.fk { font-weight: bold; } .ty { fill: #adb1b5; font-weight: normal; text-anchor: end; } .r { fill: transparent; stroke: #c3c3c3; stroke-width: 1; } .l { stroke: 1; } .i { fill: #c2c7ce; stroke: #c2c7ce; } .i.ix { fill: #afb3b6; stroke: #000; } .fa { fill: transparent; overflow: visible; } .fa .bg.hover { fill: #f7f7f7; } .c { cy: 12; r: 4; stroke: #d2d2dc; fill: #d2d2dc; } .hr { fill: transparent; stroke: #323c46; stroke-opacity: 0.035; stroke-width: 13; } .dc { stroke: #fa5a3c; fill: #fa5a3c; } .x { stroke: white; stroke-width: 1; } .hl .th { fill: #1b9bff; } .hl .tht {  } .fhl .bg { fill: #e7f4ff; } .fhls .bg {  } .r.hl { stroke: #1b9bff; } .dim { opacity: 0.25; }</style><g class="drawing-wrapper" transform="translate(-291.86571428571403, -319.5733333333327) scale(1,1)"><g class="rs"><path d="M 588.25 406.57 m -1, 0 a 1,1 0 1,0 2,0 a 1,1 0 1,0 -2,0 M 588.25 406.57 m -0.5, 0 a 0.5,0.5 0 1,0 1,0 a 0.5,0.5 0 1,0 -1,0  M588.25 406.57 L588.25 406.57 576.25 406.57 M582.25 412.57 L582.25 412.57 582.25 400.57 M576.25 406.57 Q 560.61 406.57, 544.97 507.21 T 513.69 607.85 M 501.69 607.85 m -1, 0 a 1,1 0 1,0 2,0 a 1,1 0 1,0 -2,0 M 501.69 607.85 m -0.5, 0 a 0.5,0.5 0 1,0 1,0 a 0.5,0.5 0 1,0 -1,0  M501.69 607.85 L501.69 607.85 513.69 607.85 M507.69 613.85 L507.69 613.85 507.69 601.85" id="h3620250256" class="r"></path><path d="M 764.44 431.57 m -1, 0 a 1,1 0 1,0 2,0 a 1,1 0 1,0 -2,0 M 764.44 431.57 m -0.5, 0 a 0.5,0.5 0 1,0 1,0 a 0.5,0.5 0 1,0 -1,0  M764.44 431.57 L764.44 431.57 776.44 431.57 M 764.44 437.57 m -1, 0 a 1,1 0 1,0 2,0 a 1,1 0 1,0 -2,0 M 764.44 437.57 m -0.5, 0 a 0.5,0.5 0 1,0 1,0 a 0.5,0.5 0 1,0 -1,0  M764.44 437.57 L764.44 437.57 771.44 431.57 764.44 425.57 M 764.44 425.57 m -1, 0 a 1,1 0 1,0 2,0 a 1,1 0 1,0 -2,0 M 764.44 425.57 m -0.5, 0 a 0.5,0.5 0 1,0 1,0 a 0.5,0.5 0 1,0 -1,0  M776.44 431.57 Q 791.82 431.57, 807.19 459.73 T 837.93 487.89 M 849.93 487.89 m -1, 0 a 1,1 0 1,0 2,0 a 1,1 0 1,0 -2,0 M 849.93 487.89 m -0.5, 0 a 0.5,0.5 0 1,0 1,0 a 0.5,0.5 0 1,0 -1,0  M849.93 487.89 L849.93 487.89 837.93 487.89 M843.93 493.89 L843.93 493.89 843.93 481.89" id="h4051903036" class="r"></path><path d="M 588.11 522.4200000000001 m -1, 0 a 1,1 0 1,0 2,0 a 1,1 0 1,0 -2,0 M 588.11 522.4200000000001 m -0.5, 0 a 0.5,0.5 0 1,0 1,0 a 0.5,0.5 0 1,0 -1,0  M588.11 522.4200000000001 L588.11 522.4200000000001 576.11 522.4200000000001 M 588.11 528.4200000000001 m -1, 0 a 1,1 0 1,0 2,0 a 1,1 0 1,0 -2,0 M 588.11 528.4200000000001 m -0.5, 0 a 0.5,0.5 0 1,0 1,0 a 0.5,0.5 0 1,0 -1,0  M588.11 528.4200000000001 L588.11 528.4200000000001 581.11 522.4200000000001 588.11 516.4200000000001 M 588.11 516.4200000000001 m -1, 0 a 1,1 0 1,0 2,0 a 1,1 0 1,0 -2,0 M 588.11 516.4200000000001 m -0.5, 0 a 0.5,0.5 0 1,0 1,0 a 0.5,0.5 0 1,0 -1,0  M576.11 522.4200000000001 Q 560.51 522.4200000000001, 544.9 565.14 T 513.69 607.85 M 501.69 607.85 m -1, 0 a 1,1 0 1,0 2,0 a 1,1 0 1,0 -2,0 M 501.69 607.85 m -0.5, 0 a 0.5,0.5 0 1,0 1,0 a 0.5,0.5 0 1,0 -1,0  M501.69 607.85 L501.69 607.85 513.69 607.85 M507.69 613.85 L507.69 613.85 507.69 601.85" id="h2575963211" class="r"></path><path d="M 757.3 547.4200000000001 m -1, 0 a 1,1 0 1,0 2,0 a 1,1 0 1,0 -2,0 M 757.3 547.4200000000001 m -0.5, 0 a 0.5,0.5 0 1,0 1,0 a 0.5,0.5 0 1,0 -1,0  M757.3 547.4200000000001 L757.3 547.4200000000001 769.3 547.4200000000001 M 757.3 553.4200000000001 m -1, 0 a 1,1 0 1,0 2,0 a 1,1 0 1,0 -2,0 M 757.3 553.4200000000001 m -0.5, 0 a 0.5,0.5 0 1,0 1,0 a 0.5,0.5 0 1,0 -1,0  M757.3 553.4200000000001 L757.3 553.4200000000001 764.3 547.4200000000001 757.3 541.4200000000001 M 757.3 541.4200000000001 m -1, 0 a 1,1 0 1,0 2,0 a 1,1 0 1,0 -2,0 M 757.3 541.4200000000001 m -0.5, 0 a 0.5,0.5 0 1,0 1,0 a 0.5,0.5 0 1,0 -1,0  M769.3 547.4200000000001 Q 786.46 547.4200000000001, 803.62 517.66 T 837.93 487.89 M 849.93 487.89 m -1, 0 a 1,1 0 1,0 2,0 a 1,1 0 1,0 -2,0 M 849.93 487.89 m -0.5, 0 a 0.5,0.5 0 1,0 1,0 a 0.5,0.5 0 1,0 -1,0  M849.93 487.89 L849.93 487.89 837.93 487.89 M843.93 493.89 L843.93 493.89 843.93 481.89" id="h4195723066" class="r"></path><path d="M 588.79 636.36 m -1, 0 a 1,1 0 1,0 2,0 a 1,1 0 1,0 -2,0 M 588.79 636.36 m -0.5, 0 a 0.5,0.5 0 1,0 1,0 a 0.5,0.5 0 1,0 -1,0  M588.79 636.36 L588.79 636.36 576.79 636.36 M582.79 642.36 L582.79 642.36 582.79 630.36 M576.79 636.36 Q 561.02 636.36, 545.24 622.11 T 513.69 607.85 M 501.69 607.85 m -1, 0 a 1,1 0 1,0 2,0 a 1,1 0 1,0 -2,0 M 501.69 607.85 m -0.5, 0 a 0.5,0.5 0 1,0 1,0 a 0.5,0.5 0 1,0 -1,0  M501.69 607.85 L501.69 607.85 513.69 607.85 M507.69 613.85 L507.69 613.85 507.69 601.85" id="h221257298" class="r"></path><path d="M 501.69 632.85 m -1, 0 a 1,1 0 1,0 2,0 a 1,1 0 1,0 -2,0 M 501.69 632.85 m -0.5, 0 a 0.5,0.5 0 1,0 1,0 a 0.5,0.5 0 1,0 -1,0  M501.69 632.85 L501.69 632.85 513.69 632.85 M 501.69 638.85 m -1, 0 a 1,1 0 1,0 2,0 a 1,1 0 1,0 -2,0 M 501.69 638.85 m -0.5, 0 a 0.5,0.5 0 1,0 1,0 a 0.5,0.5 0 1,0 -1,0  M501.69 638.85 L501.69 638.85 508.69 632.85 501.69 626.85 M 501.69 626.85 m -1, 0 a 1,1 0 1,0 2,0 a 1,1 0 1,0 -2,0 M 501.69 626.85 m -0.5, 0 a 0.5,0.5 0 1,0 1,0 a 0.5,0.5 0 1,0 -1,0  M513.69 632.85 Q 529.73 632.85, 545.76 693.2 T 577.83 753.55 M 589.83 753.55 m -1, 0 a 1,1 0 1,0 2,0 a 1,1 0 1,0 -2,0 M 589.83 753.55 m -0.5, 0 a 0.5,0.5 0 1,0 1,0 a 0.5,0.5 0 1,0 -1,0  M589.83 753.55 L589.83 753.55 577.83 753.55 M583.83 759.55 L583.83 759.55 583.83 747.55" id="h133153459" class="r"></path></g><g class="hrs"></g><g class="ts"><svg width="185.17" height="100" x="849.93" y="430.89" id="h2876837712" class="t"><rect height="40" width="185.17" class="th"></rect><text x="13" y="25" class="tht">Department</text><rect height="60" width="185.17" class="t-bg"></rect><text x="13" y="61" class="tf pk">dept_no<tspan x="172.17" class="ty">CHAR(4)</tspan></text><path d="M7,14A2,2 0 0,1 5,12A2,2 0 0,1 7,10A2,2 0 0,1 9,12A2,2 0 0,1 7,14M12.65,10C11.83,7.67 9.61,6 7, 6A6, 6 0 0, 0 1, 12A6, 6 0 0, 0 7, 18C9.61, 18 11.83, 16.33 12.65, 14H17V18H21V14H23V10H12.65Z" class="i pk" transform="translate(103.50203124999999, 48) scale(0.65)"></path><text x="13" y="86" class="tf">dept_name<tspan x="172.17" class="ty">VARCHAR(30)</tspan></text></svg><svg width="176.19" height="100" x="588.25" y="349.57" id="h253171898" class="t"><rect height="40" width="176.19" class="th"></rect><text x="13" y="25" class="tht">Department_Employees</text><rect height="60" width="176.19" class="t-bg"></rect><text x="13" y="61" class="tf fk">emp_no<tspan x="163.19" class="ty">INT</tspan></text><text x="13" y="86" class="tf fk">dept_no<tspan x="163.19" class="ty">CHAR(4)</tspan></text></svg><svg width="169.19" height="100" x="588.11" y="465.42" id="h3643866262" class="t"><rect height="40" width="169.19" class="th"></rect><text x="13" y="25" class="tht">Department_Managers</text><rect height="60" width="169.19" class="t-bg"></rect><text x="13" y="61" class="tf fk">emp_no<tspan x="156.19" class="ty">INT</tspan></text><text x="13" y="86" class="tf fk">dept_no<tspan x="156.19" class="ty">CHAR(4)</tspan></text></svg><svg width="141.35" height="100" x="588.79" y="579.36" id="h3858243705" class="t"><rect height="40" width="141.35" class="th"></rect><text x="13" y="25" class="tht">Salaries</text><rect height="60" width="141.35" class="t-bg"></rect><text x="13" y="61" class="tf fk">emp_no<tspan x="128.35" class="ty">INT</tspan></text><text x="13" y="86" class="tf">salary<tspan x="128.35" class="ty">INT(money)</tspan></text></svg><svg width="187.82" height="225" x="313.87" y="550.85" id="h3299212598" class="t"><rect height="40" width="187.82" class="th"></rect><text x="13" y="25" class="tht">Employees</text><rect height="185" width="187.82" class="t-bg"></rect><text x="13" y="61" class="tf pk">emp_no<tspan x="174.82" class="ty">INT</tspan></text><path d="M7,14A2,2 0 0,1 5,12A2,2 0 0,1 7,10A2,2 0 0,1 9,12A2,2 0 0,1 7,14M12.65,10C11.83,7.67 9.61,6 7, 6A6, 6 0 0, 0 1, 12A6, 6 0 0, 0 7, 18C9.61, 18 11.83, 16.33 12.65, 14H17V18H21V14H23V10H12.65Z" class="i pk" transform="translate(135.489921875, 48) scale(0.65)"></path><text x="13" y="86" class="tf fk">emp_title_id<tspan x="174.82" class="ty">CHAR(5)</tspan></text><text x="13" y="111" class="tf">birth_date<tspan x="174.82" class="ty">DATE</tspan></text><text x="13" y="136" class="tf">first_name<tspan x="174.82" class="ty">VARCHAR(255)</tspan></text><text x="13" y="161" class="tf">last_name<tspan x="174.82" class="ty">VARCHAR(255)</tspan></text><text x="13" y="186" class="tf">sex<tspan x="174.82" class="ty">TEXT(1)</tspan></text><text x="13" y="211" class="tf">hire_date<tspan x="174.82" class="ty">DATE</tspan></text></svg><svg width="149.36" height="100" x="589.83" y="696.55" id="h3517680912" class="t"><rect height="40" width="149.36" class="th"></rect><text x="13" y="25" class="tht">Titles</text><rect height="60" width="149.36" class="t-bg"></rect><text x="13" y="61" class="tf pk">title_id<tspan x="136.36" class="ty">CHAR(5)</tspan></text><path d="M7,14A2,2 0 0,1 5,12A2,2 0 0,1 7,10A2,2 0 0,1 9,12A2,2 0 0,1 7,14M12.65,10C11.83,7.67 9.61,6 7, 6A6, 6 0 0, 0 1, 12A6, 6 0 0, 0 7, 18C9.61, 18 11.83, 16.33 12.65, 14H17V18H21V14H23V10H12.65Z" class="i pk" transform="translate(67.69203125000001, 48) scale(0.65)"></path><text x="13" y="86" class="tf">title<tspan x="136.36" class="ty">VARCHAR(30)</tspan></text></svg></g></g><text class="qdbd-link" x="10" y="20">www.quickdatabasediagrams.com</text></svg>