<svg class="diagram-root" style="background: #f5f6f6" xmlns="http://www.w3.org/2000/svg" xmlns:xlink="http://www.w3.org/1999/xlink"><style>.diagram-root { font-family: "Helvetica Neue", sans-serif; font-size: 12px; } .t { overflow: visible; } .t-bg { y: 40; fill: #fff;   } .th { fill: #005aa0;   } .tht { fill: #fff; font-size: 14px;  } .tf { fill: #323c46; overflow: visible; } .tf.pk { fill: #005aa0; font-weight: bold; } .tf.fk { font-weight: bold; } .ty { fill: #adb1b5; font-weight: normal; text-anchor: end; } .r { fill: transparent; stroke: #c3c3c3; stroke-width: 1; } .l { stroke: 1; } .i { fill: #c2c7ce; stroke: #c2c7ce; } .i.ix { fill: #afb3b6; stroke: #000; } .fa { fill: transparent; overflow: visible; } .fa .bg.hover { fill: #f7f7f7; } .c { cy: 12; r: 4; stroke: #d2d2dc; fill: #d2d2dc; } .hr { fill: transparent; stroke: #323c46; stroke-opacity: 0.035; stroke-width: 13; } .dc { stroke: #fa5a3c; fill: #fa5a3c; } .x { stroke: white; stroke-width: 1; } .hl .th { fill: #1b9bff; } .hl .tht {  } .fhl .bg { fill: #e7f4ff; } .fhls .bg {  } .r.hl { stroke: #1b9bff; } .dim { opacity: 0.25; }</style><g class="drawing-wrapper" transform="translate(-271.39857142857124, -403.2171428571429) scale(1,1)"><g class="rs"><path d="M 572.5342857142849 491.0999999999999 m -1, 0 a 1,1 0 1,0 2,0 a 1,1 0 1,0 -2,0 M 572.5342857142849 491.0999999999999 m -0.5, 0 a 0.5,0.5 0 1,0 1,0 a 0.5,0.5 0 1,0 -1,0  M572.5342857142849 491.0999999999999 L572.5342857142849 491.0999999999999 560.5342857142849 491.0999999999999 M 572.5342857142849 497.0999999999999 m -1, 0 a 1,1 0 1,0 2,0 a 1,1 0 1,0 -2,0 M 572.5342857142849 497.0999999999999 m -0.5, 0 a 0.5,0.5 0 1,0 1,0 a 0.5,0.5 0 1,0 -1,0  M572.5342857142849 497.0999999999999 L572.5342857142849 497.0999999999999 565.5342857142849 491.0999999999999 572.5342857142849 485.0999999999999 M 572.5342857142849 485.0999999999999 m -1, 0 a 1,1 0 1,0 2,0 a 1,1 0 1,0 -2,0 M 572.5342857142849 485.0999999999999 m -0.5, 0 a 0.5,0.5 0 1,0 1,0 a 0.5,0.5 0 1,0 -1,0  M560.5342857142849 491.0999999999999 Q 543.82 491.0999999999999, 527.11 551.62 T 493.69 612.1385714285702 M 481.69 612.1385714285702 m -1, 0 a 1,1 0 1,0 2,0 a 1,1 0 1,0 -2,0 M 481.69 612.1385714285702 m -0.5, 0 a 0.5,0.5 0 1,0 1,0 a 0.5,0.5 0 1,0 -1,0  M481.69 612.1385714285702 L481.69 612.1385714285702 493.69 612.1385714285702 M487.69 618.1385714285702 L487.69 618.1385714285702 487.69 606.1385714285702" id="h3620250256" class="r"></path><path d="M 748.72 516.0999999999999 m -1, 0 a 1,1 0 1,0 2,0 a 1,1 0 1,0 -2,0 M 748.72 516.0999999999999 m -0.5, 0 a 0.5,0.5 0 1,0 1,0 a 0.5,0.5 0 1,0 -1,0  M748.72 516.0999999999999 L748.72 516.0999999999999 760.72 516.0999999999999 M 748.72 522.0999999999999 m -1, 0 a 1,1 0 1,0 2,0 a 1,1 0 1,0 -2,0 M 748.72 522.0999999999999 m -0.5, 0 a 0.5,0.5 0 1,0 1,0 a 0.5,0.5 0 1,0 -1,0  M748.72 522.0999999999999 L748.72 522.0999999999999 755.72 516.0999999999999 748.72 510.0999999999999 M 748.72 510.0999999999999 m -1, 0 a 1,1 0 1,0 2,0 a 1,1 0 1,0 -2,0 M 748.72 510.0999999999999 m -0.5, 0 a 0.5,0.5 0 1,0 1,0 a 0.5,0.5 0 1,0 -1,0  M760.72 516.0999999999999 Q 776.51 516.0999999999999, 792.3 504.14 T 823.8871428571434 492.17857142857105 M 835.8871428571434 492.17857142857105 m -1, 0 a 1,1 0 1,0 2,0 a 1,1 0 1,0 -2,0 M 835.8871428571434 492.17857142857105 m -0.5, 0 a 0.5,0.5 0 1,0 1,0 a 0.5,0.5 0 1,0 -1,0  M835.8871428571434 492.17857142857105 L835.8871428571434 492.17857142857105 823.8871428571434 492.17857142857105 M829.8871428571434 498.17857142857105 L829.8871428571434 498.17857142857105 829.8871428571434 486.17857142857105" id="h4051903036" class="r"></path><path d="M 572.8657142857136 612.1771428571427 m -1, 0 a 1,1 0 1,0 2,0 a 1,1 0 1,0 -2,0 M 572.8657142857136 612.1771428571427 m -0.5, 0 a 0.5,0.5 0 1,0 1,0 a 0.5,0.5 0 1,0 -1,0  M572.8657142857136 612.1771428571427 L572.8657142857136 612.1771428571427 560.8657142857136 612.1771428571427 M 572.8657142857136 618.1771428571427 m -1, 0 a 1,1 0 1,0 2,0 a 1,1 0 1,0 -2,0 M 572.8657142857136 618.1771428571427 m -0.5, 0 a 0.5,0.5 0 1,0 1,0 a 0.5,0.5 0 1,0 -1,0  M572.8657142857136 618.1771428571427 L572.8657142857136 618.1771428571427 565.8657142857136 612.1771428571427 572.8657142857136 606.1771428571427 M 572.8657142857136 606.1771428571427 m -1, 0 a 1,1 0 1,0 2,0 a 1,1 0 1,0 -2,0 M 572.8657142857136 606.1771428571427 m -0.5, 0 a 0.5,0.5 0 1,0 1,0 a 0.5,0.5 0 1,0 -1,0  M560.8657142857136 612.1771428571427 Q 544.07 612.1771428571427, 527.28 612.16 T 493.69 612.1385714285702 M 481.69 612.1385714285702 m -1, 0 a 1,1 0 1,0 2,0 a 1,1 0 1,0 -2,0 M 481.69 612.1385714285702 m -0.5, 0 a 0.5,0.5 0 1,0 1,0 a 0.5,0.5 0 1,0 -1,0  M481.69 612.1385714285702 L481.69 612.1385714285702 493.69 612.1385714285702 M487.69 618.1385714285702 L487.69 618.1385714285702 487.69 606.1385714285702" id="h2575963211" class="r"></path><path d="M 742.06 637.1771428571427 m -1, 0 a 1,1 0 1,0 2,0 a 1,1 0 1,0 -2,0 M 742.06 637.1771428571427 m -0.5, 0 a 0.5,0.5 0 1,0 1,0 a 0.5,0.5 0 1,0 -1,0  M742.06 637.1771428571427 L742.06 637.1771428571427 754.06 637.1771428571427 M 742.06 643.1771428571427 m -1, 0 a 1,1 0 1,0 2,0 a 1,1 0 1,0 -2,0 M 742.06 643.1771428571427 m -0.5, 0 a 0.5,0.5 0 1,0 1,0 a 0.5,0.5 0 1,0 -1,0  M742.06 643.1771428571427 L742.06 643.1771428571427 749.06 637.1771428571427 742.06 631.1771428571427 M 742.06 631.1771428571427 m -1, 0 a 1,1 0 1,0 2,0 a 1,1 0 1,0 -2,0 M 742.06 631.1771428571427 m -0.5, 0 a 0.5,0.5 0 1,0 1,0 a 0.5,0.5 0 1,0 -1,0  M754.06 637.1771428571427 Q 771.52 637.1771428571427, 788.97 564.68 T 823.8871428571434 492.17857142857105 M 835.8871428571434 492.17857142857105 m -1, 0 a 1,1 0 1,0 2,0 a 1,1 0 1,0 -2,0 M 835.8871428571434 492.17857142857105 m -0.5, 0 a 0.5,0.5 0 1,0 1,0 a 0.5,0.5 0 1,0 -1,0  M835.8871428571434 492.17857142857105 L835.8871428571434 492.17857142857105 823.8871428571434 492.17857142857105 M829.8871428571434 498.17857142857105 L829.8871428571434 498.17857142857105 829.8871428571434 486.17857142857105" id="h4195723066" class="r"></path><path d="M 572.3585714285709 739.217142857142 m -1, 0 a 1,1 0 1,0 2,0 a 1,1 0 1,0 -2,0 M 572.3585714285709 739.217142857142 m -0.5, 0 a 0.5,0.5 0 1,0 1,0 a 0.5,0.5 0 1,0 -1,0  M572.3585714285709 739.217142857142 L572.3585714285709 739.217142857142 560.3585714285709 739.217142857142 M 572.3585714285709 745.217142857142 m -1, 0 a 1,1 0 1,0 2,0 a 1,1 0 1,0 -2,0 M 572.3585714285709 745.217142857142 m -0.5, 0 a 0.5,0.5 0 1,0 1,0 a 0.5,0.5 0 1,0 -1,0  M572.3585714285709 745.217142857142 L572.3585714285709 745.217142857142 565.3585714285709 739.217142857142 572.3585714285709 733.217142857142 M 572.3585714285709 733.217142857142 m -1, 0 a 1,1 0 1,0 2,0 a 1,1 0 1,0 -2,0 M 572.3585714285709 733.217142857142 m -0.5, 0 a 0.5,0.5 0 1,0 1,0 a 0.5,0.5 0 1,0 -1,0  M560.3585714285709 739.217142857142 Q 543.69 739.217142857142, 527.02 675.68 T 493.69 612.1385714285702 M 481.69 612.1385714285702 m -1, 0 a 1,1 0 1,0 2,0 a 1,1 0 1,0 -2,0 M 481.69 612.1385714285702 m -0.5, 0 a 0.5,0.5 0 1,0 1,0 a 0.5,0.5 0 1,0 -1,0  M481.69 612.1385714285702 L481.69 612.1385714285702 493.69 612.1385714285702 M487.69 618.1385714285702 L487.69 618.1385714285702 487.69 606.1385714285702" id="h221257298" class="r"></path><path d="M 293.86571428571386 637.1385714285702 m -1, 0 a 1,1 0 1,0 2,0 a 1,1 0 1,0 -2,0 M 293.86571428571386 637.1385714285702 m -0.5, 0 a 0.5,0.5 0 1,0 1,0 a 0.5,0.5 0 1,0 -1,0  M293.86571428571386 637.1385714285702 L293.86571428571386 637.1385714285702 281.86571428571386 637.1385714285702 M287.86571428571386 643.1385714285702 L287.86571428571386 643.1385714285702 287.86571428571386 631.1385714285702 M281.86571428571386 637.1385714285702 C 232.1442286410442 637.1385714285702, 232.4245143553298 490.2171428571429, 281.39857142857124 490.2171428571429 M 293.39857142857124 490.2171428571429 m -1, 0 a 1,1 0 1,0 2,0 a 1,1 0 1,0 -2,0 M 293.39857142857124 490.2171428571429 m -0.5, 0 a 0.5,0.5 0 1,0 1,0 a 0.5,0.5 0 1,0 -1,0  M293.39857142857124 490.2171428571429 L293.39857142857124 490.2171428571429 281.39857142857124 490.2171428571429 M287.39857142857124 496.2171428571429 L287.39857142857124 496.2171428571429 287.39857142857124 484.2171428571429" id="h133153459" class="r"></path></g><g class="hrs"></g><g class="ts"><svg width="187.82" height="225" x="293.86571428571386" y="555.1385714285702" id="h3299212598" class="t"><rect height="40" width="187.82" class="th"></rect><text x="13" y="25" class="tht">Employees</text><rect height="185" width="187.82" class="t-bg"></rect><text x="13" y="61" class="tf pk">emp_no<tspan x="174.82" class="ty">INT</tspan></text><path d="M7,14A2,2 0 0,1 5,12A2,2 0 0,1 7,10A2,2 0 0,1 9,12A2,2 0 0,1 7,14M12.65,10C11.83,7.67 9.61,6 7, 6A6, 6 0 0, 0 1, 12A6, 6 0 0, 0 7, 18C9.61, 18 11.83, 16.33 12.65, 14H17V18H21V14H23V10H12.65Z" class="i pk" transform="translate(135.489921875, 48) scale(0.65)"></path><text x="13" y="86" class="tf fk">emp_title_id<tspan x="174.82" class="ty">CHAR(5)</tspan></text><text x="13" y="111" class="tf">birth_date<tspan x="174.82" class="ty">DATE</tspan></text><text x="13" y="136" class="tf">first_name<tspan x="174.82" class="ty">VARCHAR(255)</tspan></text><text x="13" y="161" class="tf">last_name<tspan x="174.82" class="ty">VARCHAR(255)</tspan></text><text x="13" y="186" class="tf">sex<tspan x="174.82" class="ty">TEXT(1)</tspan></text><text x="13" y="211" class="tf">hire_date<tspan x="174.82" class="ty">DATE</tspan></text></svg><svg width="149.36" height="100" x="293.39857142857124" y="433.2171428571429" id="h3517680912" class="t"><rect height="40" width="149.36" class="th"></rect><text x="13" y="25" class="tht">Titles</text><rect height="60" width="149.36" class="t-bg"></rect><text x="13" y="61" class="tf pk">title_id<tspan x="136.36" class="ty">CHAR(5)</tspan></text><path d="M7,14A2,2 0 0,1 5,12A2,2 0 0,1 7,10A2,2 0 0,1 9,12A2,2 0 0,1 7,14M12.65,10C11.83,7.67 9.61,6 7, 6A6, 6 0 0, 0 1, 12A6, 6 0 0, 0 7, 18C9.61, 18 11.83, 16.33 12.65, 14H17V18H21V14H23V10H12.65Z" class="i pk" transform="translate(67.69203125000001, 48) scale(0.65)"></path><text x="13" y="86" class="tf">title<tspan x="136.36" class="ty">VARCHAR(30)</tspan></text></svg><svg width="141.35" height="100" x="572.3585714285709" y="682.217142857142" id="h3858243705" class="t"><rect height="40" width="141.35" class="th"></rect><text x="13" y="25" class="tht">Salaries</text><rect height="60" width="141.35" class="t-bg"></rect><text x="13" y="61" class="tf fk">emp_no<tspan x="128.35" class="ty">INT</tspan></text><text x="13" y="86" class="tf">salary<tspan x="128.35" class="ty">INT(money)</tspan></text></svg><svg width="169.19" height="100" x="572.8657142857136" y="555.1771428571427" id="h3643866262" class="t"><rect height="40" width="169.19" class="th"></rect><text x="13" y="25" class="tht">Department_Managers</text><rect height="60" width="169.19" class="t-bg"></rect><text x="13" y="61" class="tf fk">emp_no<tspan x="156.19" class="ty">INT</tspan></text><text x="13" y="86" class="tf fk">dept_no<tspan x="156.19" class="ty">CHAR(4)</tspan></text></svg><svg width="176.19" height="100" x="572.5342857142849" y="434.0999999999999" id="h253171898" class="t"><rect height="40" width="176.19" class="th"></rect><text x="13" y="25" class="tht">Department_Employees</text><rect height="60" width="176.19" class="t-bg"></rect><text x="13" y="61" class="tf fk">emp_no<tspan x="163.19" class="ty">INT</tspan></text><text x="13" y="86" class="tf fk">dept_no<tspan x="163.19" class="ty">CHAR(4)</tspan></text></svg><svg width="185.17" height="100" x="835.8871428571434" y="435.17857142857105" id="h2876837712" class="t"><rect height="40" width="185.17" class="th"></rect><text x="13" y="25" class="tht">Department</text><rect height="60" width="185.17" class="t-bg"></rect><text x="13" y="61" class="tf pk">dept_no<tspan x="172.17" class="ty">CHAR(4)</tspan></text><path d="M7,14A2,2 0 0,1 5,12A2,2 0 0,1 7,10A2,2 0 0,1 9,12A2,2 0 0,1 7,14M12.65,10C11.83,7.67 9.61,6 7, 6A6, 6 0 0, 0 1, 12A6, 6 0 0, 0 7, 18C9.61, 18 11.83, 16.33 12.65, 14H17V18H21V14H23V10H12.65Z" class="i pk" transform="translate(103.50203124999999, 48) scale(0.65)"></path><text x="13" y="86" class="tf">dept_name<tspan x="172.17" class="ty">VARCHAR(30)</tspan></text></svg></g></g><text class="qdbd-link" x="10" y="20">www.quickdatabasediagrams.com</text></svg>