<svg class="diagram-root" style="background: #f5f6f6" xmlns="http://www.w3.org/2000/svg" xmlns:xlink="http://www.w3.org/1999/xlink"><style>.diagram-root { font-family: "Helvetica Neue", sans-serif; font-size: 12px; } .t { overflow: visible; } .t-bg { y: 40; fill: #fff;   } .th { fill: #005aa0;   } .tht { fill: #fff; font-size: 14px;  } .tf { fill: #323c46; overflow: visible; } .tf.pk { fill: #005aa0; font-weight: bold; } .tf.fk { font-weight: bold; } .ty { fill: #adb1b5; font-weight: normal; text-anchor: end; } .r { fill: transparent; stroke: #c3c3c3; stroke-width: 1; } .l { stroke: 1; } .i { fill: #c2c7ce; stroke: #c2c7ce; } .i.ix { fill: #afb3b6; stroke: #000; } .fa { fill: transparent; overflow: visible; } .fa .bg.hover { fill: #f7f7f7; } .c { cy: 12; r: 4; stroke: #d2d2dc; fill: #d2d2dc; } .hr { fill: transparent; stroke: #323c46; stroke-opacity: 0.035; stroke-width: 13; } .dc { stroke: #fa5a3c; fill: #fa5a3c; } .x { stroke: white; stroke-width: 1; } .hl .th { fill: #1b9bff; } .hl .tht {  } .fhl .bg { fill: #e7f4ff; } .fhls .bg {  } .r.hl { stroke: #1b9bff; } .dim { opacity: 0.25; }</style><g class="drawing-wrapper" transform="translate(-219.9685714285716, -399.4242857142855) scale(1,1)"><g class="rs"><path d="M 751.105714285714 486.8142857142857 m -1, 0 a 1,1 0 1,0 2,0 a 1,1 0 1,0 -2,0 M 751.105714285714 486.8142857142857 m -0.5, 0 a 0.5,0.5 0 1,0 1,0 a 0.5,0.5 0 1,0 -1,0  M751.105714285714 486.8142857142857 L751.105714285714 486.8142857142857 739.105714285714 486.8142857142857 M 751.105714285714 492.8142857142857 m -1, 0 a 1,1 0 1,0 2,0 a 1,1 0 1,0 -2,0 M 751.105714285714 492.8142857142857 m -0.5, 0 a 0.5,0.5 0 1,0 1,0 a 0.5,0.5 0 1,0 -1,0  M751.105714285714 492.8142857142857 L751.105714285714 492.8142857142857 744.105714285714 486.8142857142857 751.105714285714 480.8142857142857 M 751.105714285714 480.8142857142857 m -1, 0 a 1,1 0 1,0 2,0 a 1,1 0 1,0 -2,0 M 751.105714285714 480.8142857142857 m -0.5, 0 a 0.5,0.5 0 1,0 1,0 a 0.5,0.5 0 1,0 -1,0  M739.105714285714 486.8142857142857 Q 723.82 486.8142857142857, 708.54 486.62 T 677.97 486.4242857142855 M 665.97 486.4242857142855 m -1, 0 a 1,1 0 1,0 2,0 a 1,1 0 1,0 -2,0 M 665.97 486.4242857142855 m -0.5, 0 a 0.5,0.5 0 1,0 1,0 a 0.5,0.5 0 1,0 -1,0  M665.97 486.4242857142855 L665.97 486.4242857142855 677.97 486.4242857142855 M671.97 492.4242857142855 L671.97 492.4242857142855 671.97 480.4242857142855" id="h3620250256" class="r"></path><path d="M 927.3 511.8142857142857 m -1, 0 a 1,1 0 1,0 2,0 a 1,1 0 1,0 -2,0 M 927.3 511.8142857142857 m -0.5, 0 a 0.5,0.5 0 1,0 1,0 a 0.5,0.5 0 1,0 -1,0  M927.3 511.8142857142857 L927.3 511.8142857142857 939.3 511.8142857142857 M 927.3 517.8142857142857 m -1, 0 a 1,1 0 1,0 2,0 a 1,1 0 1,0 -2,0 M 927.3 517.8142857142857 m -0.5, 0 a 0.5,0.5 0 1,0 1,0 a 0.5,0.5 0 1,0 -1,0  M927.3 517.8142857142857 L927.3 517.8142857142857 934.3 511.8142857142857 927.3 505.8142857142857 M 927.3 505.8142857142857 m -1, 0 a 1,1 0 1,0 2,0 a 1,1 0 1,0 -2,0 M 927.3 505.8142857142857 m -0.5, 0 a 0.5,0.5 0 1,0 1,0 a 0.5,0.5 0 1,0 -1,0  M939.3 511.8142857142857 Q 954.73 511.8142857142857, 970.17 499.85 T 1001.0300000000013 487.89285714285705 M 1013.0300000000013 487.89285714285705 m -1, 0 a 1,1 0 1,0 2,0 a 1,1 0 1,0 -2,0 M 1013.0300000000013 487.89285714285705 m -0.5, 0 a 0.5,0.5 0 1,0 1,0 a 0.5,0.5 0 1,0 -1,0  M1013.0300000000013 487.89285714285705 L1013.0300000000013 487.89285714285705 1001.0300000000013 487.89285714285705 M1007.0300000000013 493.89285714285705 L1007.0300000000013 493.89285714285705 1007.0300000000013 481.89285714285705" id="h4051903036" class="r"></path><path d="M 758.5799999999998 606.4628571428569 m -1, 0 a 1,1 0 1,0 2,0 a 1,1 0 1,0 -2,0 M 758.5799999999998 606.4628571428569 m -0.5, 0 a 0.5,0.5 0 1,0 1,0 a 0.5,0.5 0 1,0 -1,0  M758.5799999999998 606.4628571428569 L758.5799999999998 606.4628571428569 746.5799999999998 606.4628571428569 M 758.5799999999998 612.4628571428569 m -1, 0 a 1,1 0 1,0 2,0 a 1,1 0 1,0 -2,0 M 758.5799999999998 612.4628571428569 m -0.5, 0 a 0.5,0.5 0 1,0 1,0 a 0.5,0.5 0 1,0 -1,0  M758.5799999999998 612.4628571428569 L758.5799999999998 612.4628571428569 751.5799999999998 606.4628571428569 758.5799999999998 600.4628571428569 M 758.5799999999998 600.4628571428569 m -1, 0 a 1,1 0 1,0 2,0 a 1,1 0 1,0 -2,0 M 758.5799999999998 600.4628571428569 m -0.5, 0 a 0.5,0.5 0 1,0 1,0 a 0.5,0.5 0 1,0 -1,0  M746.5799999999998 606.4628571428569 Q 729.43 606.4628571428569, 712.27 546.44 T 677.97 486.4242857142855 M 665.97 486.4242857142855 m -1, 0 a 1,1 0 1,0 2,0 a 1,1 0 1,0 -2,0 M 665.97 486.4242857142855 m -0.5, 0 a 0.5,0.5 0 1,0 1,0 a 0.5,0.5 0 1,0 -1,0  M665.97 486.4242857142855 L665.97 486.4242857142855 677.97 486.4242857142855 M671.97 492.4242857142855 L671.97 492.4242857142855 671.97 480.4242857142855" id="h2575963211" class="r"></path><path d="M 927.77 631.4628571428569 m -1, 0 a 1,1 0 1,0 2,0 a 1,1 0 1,0 -2,0 M 927.77 631.4628571428569 m -0.5, 0 a 0.5,0.5 0 1,0 1,0 a 0.5,0.5 0 1,0 -1,0  M927.77 631.4628571428569 L927.77 631.4628571428569 939.77 631.4628571428569 M 927.77 637.4628571428569 m -1, 0 a 1,1 0 1,0 2,0 a 1,1 0 1,0 -2,0 M 927.77 637.4628571428569 m -0.5, 0 a 0.5,0.5 0 1,0 1,0 a 0.5,0.5 0 1,0 -1,0  M927.77 637.4628571428569 L927.77 637.4628571428569 934.77 631.4628571428569 927.77 625.4628571428569 M 927.77 625.4628571428569 m -1, 0 a 1,1 0 1,0 2,0 a 1,1 0 1,0 -2,0 M 927.77 625.4628571428569 m -0.5, 0 a 0.5,0.5 0 1,0 1,0 a 0.5,0.5 0 1,0 -1,0  M939.77 631.4628571428569 Q 955.09 631.4628571428569, 970.4 559.68 T 1001.0300000000013 487.89285714285705 M 1013.0300000000013 487.89285714285705 m -1, 0 a 1,1 0 1,0 2,0 a 1,1 0 1,0 -2,0 M 1013.0300000000013 487.89285714285705 m -0.5, 0 a 0.5,0.5 0 1,0 1,0 a 0.5,0.5 0 1,0 -1,0  M1013.0300000000013 487.89285714285705 L1013.0300000000013 487.89285714285705 1001.0300000000013 487.89285714285705 M1007.0300000000013 493.89285714285705 L1007.0300000000013 493.89285714285705 1007.0300000000013 481.89285714285705" id="h4195723066" class="r"></path><path d="M 785.2157142857143 726.3599999999997 m -1, 0 a 1,1 0 1,0 2,0 a 1,1 0 1,0 -2,0 M 785.2157142857143 726.3599999999997 m -0.5, 0 a 0.5,0.5 0 1,0 1,0 a 0.5,0.5 0 1,0 -1,0  M785.2157142857143 726.3599999999997 L785.2157142857143 726.3599999999997 773.2157142857143 726.3599999999997 M 785.2157142857143 732.3599999999997 m -1, 0 a 1,1 0 1,0 2,0 a 1,1 0 1,0 -2,0 M 785.2157142857143 732.3599999999997 m -0.5, 0 a 0.5,0.5 0 1,0 1,0 a 0.5,0.5 0 1,0 -1,0  M785.2157142857143 732.3599999999997 L785.2157142857143 732.3599999999997 778.2157142857143 726.3599999999997 785.2157142857143 720.3599999999997 M 785.2157142857143 720.3599999999997 m -1, 0 a 1,1 0 1,0 2,0 a 1,1 0 1,0 -2,0 M 785.2157142857143 720.3599999999997 m -0.5, 0 a 0.5,0.5 0 1,0 1,0 a 0.5,0.5 0 1,0 -1,0  M773.2157142857143 726.3599999999997 Q 749.4 726.3599999999997, 725.59 606.39 T 677.97 486.4242857142855 M 665.97 486.4242857142855 m -1, 0 a 1,1 0 1,0 2,0 a 1,1 0 1,0 -2,0 M 665.97 486.4242857142855 m -0.5, 0 a 0.5,0.5 0 1,0 1,0 a 0.5,0.5 0 1,0 -1,0  M665.97 486.4242857142855 L665.97 486.4242857142855 677.97 486.4242857142855 M671.97 492.4242857142855 L671.97 492.4242857142855 671.97 480.4242857142855" id="h221257298" class="r"></path><path d="M 478.15142857142826 511.4242857142855 m -1, 0 a 1,1 0 1,0 2,0 a 1,1 0 1,0 -2,0 M 478.15142857142826 511.4242857142855 m -0.5, 0 a 0.5,0.5 0 1,0 1,0 a 0.5,0.5 0 1,0 -1,0  M478.15142857142826 511.4242857142855 L478.15142857142826 511.4242857142855 466.15142857142826 511.4242857142855 M472.15142857142826 517.4242857142855 L472.15142857142826 517.4242857142855 472.15142857142826 505.4242857142855 M466.15142857142826 511.4242857142855 Q 450.45 511.4242857142855, 434.74 499.39 T 403.33 487.36 M 391.33 487.36 m -1, 0 a 1,1 0 1,0 2,0 a 1,1 0 1,0 -2,0 M 391.33 487.36 m -0.5, 0 a 0.5,0.5 0 1,0 1,0 a 0.5,0.5 0 1,0 -1,0  M391.33 487.36 L391.33 487.36 403.33 487.36 M397.33 493.36 L397.33 493.36 397.33 481.36" id="h133153459" class="r"></path></g><g class="hrs"></g><g class="ts"><svg width="149.36" height="100" x="241.97" y="430.36" id="h3517680912" class="t"><rect height="40" width="149.36" class="th"></rect><text x="13" y="25" class="tht">Titles</text><rect height="60" width="149.36" class="t-bg"></rect><text x="13" y="61" class="tf pk">title_id<tspan x="136.36" class="ty">CHAR(5)</tspan></text><path d="M7,14A2,2 0 0,1 5,12A2,2 0 0,1 7,10A2,2 0 0,1 9,12A2,2 0 0,1 7,14M12.65,10C11.83,7.67 9.61,6 7, 6A6, 6 0 0, 0 1, 12A6, 6 0 0, 0 7, 18C9.61, 18 11.83, 16.33 12.65, 14H17V18H21V14H23V10H12.65Z" class="i pk" transform="translate(67.69203125000001, 48) scale(0.65)"></path><text x="13" y="86" class="tf">title<tspan x="136.36" class="ty">VARCHAR(30)</tspan></text></svg><svg width="187.82" height="225" x="478.15142857142826" y="429.4242857142855" id="h3299212598" class="t"><rect height="40" width="187.82" class="th"></rect><text x="13" y="25" class="tht">Employees</text><rect height="185" width="187.82" class="t-bg"></rect><text x="13" y="61" class="tf pk">emp_no<tspan x="174.82" class="ty">INT</tspan></text><path d="M7,14A2,2 0 0,1 5,12A2,2 0 0,1 7,10A2,2 0 0,1 9,12A2,2 0 0,1 7,14M12.65,10C11.83,7.67 9.61,6 7, 6A6, 6 0 0, 0 1, 12A6, 6 0 0, 0 7, 18C9.61, 18 11.83, 16.33 12.65, 14H17V18H21V14H23V10H12.65Z" class="i pk" transform="translate(135.489921875, 48) scale(0.65)"></path><text x="13" y="86" class="tf fk">emp_title_id<tspan x="174.82" class="ty">CHAR(5)</tspan></text><text x="13" y="111" class="tf">birth_date<tspan x="174.82" class="ty">DATE</tspan></text><text x="13" y="136" class="tf">first_name<tspan x="174.82" class="ty">VARCHAR(255)</tspan></text><text x="13" y="161" class="tf">last_name<tspan x="174.82" class="ty">VARCHAR(255)</tspan></text><text x="13" y="186" class="tf">sex<tspan x="174.82" class="ty">TEXT(1)</tspan></text><text x="13" y="211" class="tf">hire_date<tspan x="174.82" class="ty">DATE</tspan></text></svg><svg width="176.19" height="100" x="751.105714285714" y="429.8142857142857" id="h253171898" class="t"><rect height="40" width="176.19" class="th"></rect><text x="13" y="25" class="tht">Department_Employees</text><rect height="60" width="176.19" class="t-bg"></rect><text x="13" y="61" class="tf fk">emp_no<tspan x="163.19" class="ty">INT</tspan></text><text x="13" y="86" class="tf fk">dept_no<tspan x="163.19" class="ty">CHAR(4)</tspan></text></svg><svg width="169.19" height="100" x="758.5799999999998" y="549.4628571428569" id="h3643866262" class="t"><rect height="40" width="169.19" class="th"></rect><text x="13" y="25" class="tht">Department_Managers</text><rect height="60" width="169.19" class="t-bg"></rect><text x="13" y="61" class="tf fk">emp_no<tspan x="156.19" class="ty">INT</tspan></text><text x="13" y="86" class="tf fk">dept_no<tspan x="156.19" class="ty">CHAR(4)</tspan></text></svg><svg width="141.35" height="100" x="785.2157142857143" y="669.3599999999997" id="h3858243705" class="t"><rect height="40" width="141.35" class="th"></rect><text x="13" y="25" class="tht">Salaries</text><rect height="60" width="141.35" class="t-bg"></rect><text x="13" y="61" class="tf fk">emp_no<tspan x="128.35" class="ty">INT</tspan></text><text x="13" y="86" class="tf">salary<tspan x="128.35" class="ty">INT(money)</tspan></text></svg><svg width="185.17" height="100" x="1013.0300000000013" y="430.89285714285705" id="h2876837712" class="t"><rect height="40" width="185.17" class="th"></rect><text x="13" y="25" class="tht">Department</text><rect height="60" width="185.17" class="t-bg"></rect><text x="13" y="61" class="tf pk">dept_no<tspan x="172.17" class="ty">CHAR(4)</tspan></text><path d="M7,14A2,2 0 0,1 5,12A2,2 0 0,1 7,10A2,2 0 0,1 9,12A2,2 0 0,1 7,14M12.65,10C11.83,7.67 9.61,6 7, 6A6, 6 0 0, 0 1, 12A6, 6 0 0, 0 7, 18C9.61, 18 11.83, 16.33 12.65, 14H17V18H21V14H23V10H12.65Z" class="i pk" transform="translate(103.50203124999999, 48) scale(0.65)"></path><text x="13" y="86" class="tf">dept_name<tspan x="172.17" class="ty">VARCHAR(30)</tspan></text></svg></g></g><text class="qdbd-link" x="10" y="20">www.quickdatabasediagrams.com</text></svg>